<svg xmlns="http://www.w3.org/2000/svg" width="46" height="46" viewBox="0 0 46 46">
  <path fill="#010101" fill-rule="evenodd" d="M54.2001,58.3998 C51.3001,58.3998 50.9001,58.3998 49.7001,58.4998 C48.8111,58.5208 47.9331,58.6898 47.1001,58.9998 C46.3911,59.2658 45.7441,59.6738 45.2001,60.1998 C44.6401,60.7178 44.2271,61.3728 44.0001,62.0998 C43.6521,62.9218 43.4811,63.8078 43.5001,64.6998 C43.3901,66.1968 43.3561,67.6988 43.4001,69.1998 C43.4001,72.0998 43.4001,72.4998 43.5001,73.6998 C43.5211,74.5888 43.6901,75.4668 44.0001,76.2998 C44.2661,77.0088 44.6741,77.6548 45.2001,78.1998 C45.7181,78.7588 46.3721,79.1728 47.1001,79.3998 C47.9221,79.7478 48.8071,79.9188 49.7001,79.8998 C51.1971,80.0098 52.6991,80.0428 54.2001,79.9998 C57.0991,79.9998 57.5001,79.9998 58.7001,79.8998 C59.5891,79.8788 60.4671,79.7098 61.3001,79.3998 C62.0091,79.1338 62.6551,78.7258 63.2001,78.1998 C63.7591,77.6828 64.1731,77.0268 64.4001,76.2998 C64.7481,75.4788 64.9191,74.5918 64.9001,73.6998 C65.0101,72.2028 65.0441,70.7008 65.0001,69.1998 C65.0001,66.2998 65.0001,65.8998 64.9001,64.6998 C64.8791,63.8118 64.7101,62.9328 64.4001,62.0998 C64.1341,61.3908 63.7251,60.7448 63.2001,60.1998 C62.6821,59.6408 62.0271,59.2268 61.3001,58.9998 C60.4781,58.6518 59.5921,58.4818 58.7001,58.4998 C57.5001,58.3998 57.0991,58.3998 54.2001,58.3998 M53.8999,92.6998 C41.2799,92.7278 31.0279,82.5198 30.9999,69.8998 C30.9729,57.2798 41.1809,47.0278 53.7999,46.9998 C66.4199,46.9728 76.6719,57.1798 76.6999,69.7998 C76.6459,82.3858 66.4849,92.5908 53.8999,92.6998 Z M53.8999,48.3998 C42.0809,48.3448 32.4559,57.8808 32.3999,69.6998 C32.3449,81.5188 41.8809,91.1448 53.6999,91.1988 C65.5189,91.2548 75.1449,81.7188 75.1999,69.8998 L75.1999,69.7998 C75.1899,58.0248 65.6749,48.4658 53.8999,48.3998 Z M54.2001,60.2998 C55.6671,60.2578 57.1361,60.2908 58.5991,60.3998 C59.2901,60.3578 59.9791,60.4958 60.5991,60.7998 C61.0681,60.9458 61.4851,61.2238 61.8001,61.5998 C62.1551,61.9328 62.4291,62.3438 62.5991,62.7998 C62.7941,63.4528 62.9281,64.1228 63.0001,64.7998 C63.1111,66.2638 63.1441,67.7328 63.0991,69.1998 C63.1421,70.6668 63.1091,72.1358 63.0001,73.5998 C63.0421,74.2898 62.9041,74.9798 62.5991,75.5998 C62.4541,76.0678 62.1771,76.4848 61.8001,76.7998 C61.4671,77.1548 61.0561,77.4288 60.5991,77.5998 C59.9471,77.7938 59.2771,77.9278 58.5991,77.9998 C57.1361,78.1108 55.6671,78.1448 54.2001,78.0998 C52.7321,78.1428 51.2641,78.1088 49.8001,77.9998 C49.1101,78.0418 48.4211,77.9038 47.8001,77.5998 C47.3311,77.4538 46.9141,77.1768 46.6001,76.7998 C46.2441,76.4668 45.9711,76.0568 45.8001,75.5998 C45.6061,74.9468 45.4721,74.2768 45.4001,73.5998 C45.2891,72.1358 45.2551,70.6668 45.3001,69.1998 C45.2581,67.7328 45.2911,66.2638 45.4001,64.7998 C45.3581,64.1098 45.4961,63.4208 45.8001,62.7998 C45.9461,62.3318 46.2231,61.9148 46.6001,61.5998 C46.9331,61.2448 47.3441,60.9708 47.8001,60.7998 C48.4531,60.6068 49.1221,60.4728 49.8001,60.3998 C51.2641,60.2908 52.7321,60.2578 54.2001,60.2998 Z M54.2001,72.7997 C52.2121,72.7997 50.6001,71.1887 50.6001,69.1997 C50.6001,67.2117 52.2121,65.5997 54.2001,65.5997 C56.1881,65.5997 57.8001,67.2117 57.8001,69.1997 C57.8051,71.1827 56.2031,72.7947 54.2201,72.7997 L54.2001,72.7997 Z M54.2001,63.5997 C51.1071,63.5997 48.6001,66.1077 48.6001,69.1997 C48.6001,72.2927 51.1071,74.7997 54.2001,74.7997 C57.2931,74.7997 59.8001,72.2927 59.8001,69.1997 C59.8051,66.1127 57.3071,63.6057 54.2201,63.5997 L54.2001,63.5997 Z M61.2998,63.3998 C61.2888,62.6868 60.7138,62.1108 59.9998,62.0998 C59.2818,62.0998 58.6998,62.6818 58.6998,63.3998 C58.6998,64.1178 59.2818,64.6998 59.9998,64.6998 C60.7178,64.6998 61.2998,64.1178 61.2998,63.3998 Z" transform="translate(-31 -47)"/>
</svg>
