<svg xmlns="http://www.w3.org/2000/svg" width="125" height="51" viewBox="0 0 125 51">
  <path fill-rule="evenodd" d="M23.3160622,54.9274611 L23.3160622,46.6516983 C23.3160622,45.2124352 22.5964306,44.4928037 21.1571675,44.4928037 L14.0328152,44.4928037 C13.0972942,44.4928037 12.5935521,43.9890616 12.5935521,43.0535406 L12.5935521,9.15889465 C12.5935521,7.71963155 11.8739206,7 10.4346575,7 L2.15889465,7 C0.719631549,7 -8.8817842e-16,7.71963155 -8.8817842e-16,9.15889465 L-8.8817842e-16,54.9274611 C-8.8817842e-16,56.3667242 0.719631549,57.0863558 2.15889465,57.0863558 L21.1571675,57.0863558 C22.5964306,57.0863558 23.3160622,56.3667242 23.3160622,54.9274611 Z M57.2107081,47.7311457 C57.2107081,50.3218192 56.2751871,52.552677 54.4761082,54.3517559 C52.6770294,56.1508348 50.4461716,57.0863558 47.855498,57.0863558 L36.1255037,57.0863558 C33.5348302,57.0863558 31.3039724,56.1508348 29.5048935,54.3517559 C27.7058146,52.552677 26.7702936,50.3218192 26.7702936,47.7311457 L26.7702936,16.3552101 C26.7702936,13.8364997 27.7058146,11.6056419 29.5048935,9.80656304 C31.3039724,7.93552101 33.5348302,7 36.1255037,7 L47.855498,7 C50.4461716,7 52.6770294,7.93552101 54.4761082,9.80656304 C56.2751871,11.6056419 57.2107081,13.8364997 57.2107081,16.3552101 L57.2107081,47.7311457 Z M44.617156,43.0535406 L44.617156,21.0328152 C44.617156,20.0972942 44.1134139,19.5935521 43.1778929,19.5935521 L40.8031088,19.5935521 C39.8675878,19.5935521 39.3638457,20.0972942 39.3638457,21.0328152 L39.3638457,43.0535406 C39.3638457,43.9890616 39.8675878,44.4928037 40.8031088,44.4928037 L43.1778929,44.4928037 C44.1134139,44.4928037 44.617156,43.9890616 44.617156,43.0535406 Z M91.1773172,17.4346575 L91.1773172,9.15889465 C91.1773172,7.71963155 90.4576857,7 89.0184226,7 L70.0201497,7 C67.4294761,7 65.1986183,7.93552101 63.3995394,9.80656304 C61.6004606,11.6056419 60.6649396,13.8364997 60.6649396,16.3552101 L60.6649396,47.7311457 C60.6649396,50.3218192 61.6004606,52.552677 63.3995394,54.3517559 C65.1986183,56.1508348 67.4294761,57.0863558 70.0201497,57.0863558 L88.9464594,57.0863558 C90.3857225,57.0863558 91.1053541,56.3667242 91.1053541,54.9274611 L91.1053541,32.6908463 C91.1053541,31.2515832 90.3857225,30.5319516 88.9464594,30.5319516 L80.6706966,30.5319516 C79.2314335,30.5319516 78.511802,31.2515832 78.511802,32.6908463 L78.511802,43.0535406 C78.511802,43.9890616 78.0080599,44.4928037 77.0725389,44.4928037 L74.6977547,44.4928037 C73.7622337,44.4928037 73.2584917,43.9890616 73.2584917,43.0535406 L73.2584917,21.0328152 C73.2584917,20.0972942 73.7622337,19.5935521 74.6977547,19.5935521 L89.0184226,19.5935521 C90.4576857,19.5935521 91.1773172,18.8739206 91.1773172,17.4346575 Z M125,47.7311457 C125,50.3218192 124.064479,52.552677 122.2654,54.3517559 C120.466321,56.1508348 118.235463,57.0863558 115.64479,57.0863558 L103.914796,57.0863558 C101.324122,57.0863558 99.0932642,56.1508348 97.2941854,54.3517559 C95.4951065,52.552677 94.5595855,50.3218192 94.5595855,47.7311457 L94.5595855,16.3552101 C94.5595855,13.8364997 95.4951065,11.6056419 97.2941854,9.80656304 C99.0932642,7.93552101 101.324122,7 103.914796,7 L115.64479,7 C118.235463,7 120.466321,7.93552101 122.2654,9.80656304 C124.064479,11.6056419 125,13.8364997 125,16.3552101 L125,47.7311457 Z M112.406448,43.0535406 L112.406448,21.0328152 C112.406448,20.0972942 111.902706,19.5935521 110.967185,19.5935521 L108.592401,19.5935521 C107.65688,19.5935521 107.153138,20.0972942 107.153138,21.0328152 L107.153138,43.0535406 C107.153138,43.9890616 107.65688,44.4928037 108.592401,44.4928037 L110.967185,44.4928037 C111.902706,44.4928037 112.406448,43.9890616 112.406448,43.0535406 Z" transform="translate(0 -7)"/>
</svg>
